# xmcd
#
# Track frame offsets:
#	150
#	17479
#	42327
#	65232
#	98617
#	110714
#	132208
#	146009
#	160756
#	188854
#	218313
#	238238
#	256290
#	275587
#
# Disc length: 3917 seconds
# Revision: 0
# Processed by: cddbd v1.5.2PL0 Copyright (c) Steve Scherf et al.
# Submitted via: dBpowerAMP V12.0
#
DISCID=c90f4b0e
DTITLE=Roomful of Blues - 45 Live [Alligator] (sa)
DYEAR=2013
DGENRE=Blues
TTITLE0=Just Keep on Rockin'
TTITLE1=It All Went Down the Drain
TTITLE2=Jambalaya
TTITLE3=Easy Baby
TTITLE4=That's Right!
TTITLE5=Crawdad Hole
TTITLE6=You Don't Know
TTITLE7=Dress Up to Get Messed Up
TTITLE8=Straight Jacquet
TTITLE9=I Left My Baby
TTITLE10=Blue, Blue World
TTITLE11=Somebody's Got to Go
TTITLE12=Turn It On, Turn It Up
TTITLE13=Flip Flap Jack
EXTD=
EXTT0=
EXTT1=
EXTT2=
EXTT3=
EXTT4=
EXTT5=
EXTT6=
EXTT7=
EXTT8=
EXTT9=
EXTT10=
EXTT11=
EXTT12=
EXTT13=
PLAYORDER=
